# xmcd CD database generated by RipIT
#
# Track frame offsets:
# 150
# 12446
# 24960
# 38107
# 66557
# 84101
# 102652
# 118124
# 131390
# 146080
# 160397
# 180682
#
# Disc length: 2759 seconds
#
# Revision: 1
# Processed by: cddbd v1.5.2PL0 Copyright (c) Steve Scherf et al.
# Submitted via: RipIT 4.0.0-beta20140508 www.suwald.com/ripit/ripit.html on 2018-02-18 at 14:55
#
DISCID=a20ac50c
DTITLE=Margo Price - All American Made
DYEAR=2017
DGENRE=Country
TTITLE0=Don't Say It
TTITLE1=Weakness
TTITLE2=A Little Pain
TTITLE3=Learning To Lose
TTITLE4=Pay Gap
TTITLE5=Nowhere Fast
TTITLE6=Cocaine Cowboys
TTITLE7=Wild Women
TTITLE8=Heart Of America
TTITLE9=Do Right By Me
TTITLE10=Loner
TTITLE11=All American Made
EXTD=
EXTT0=
EXTT1=
EXTT2=
EXTT3=
EXTT4=
EXTT5=
EXTT6=
EXTT7=
EXTT8=
EXTT9=
EXTT10=
EXTT11=
PLAYORDER=
